<svg xmlns="http://www.w3.org/2000/svg" xmlns:xlink="http://www.w3.org/1999/xlink" width="120" zoomAndPan="magnify" viewBox="0 0 90 89.999999" height="120" preserveAspectRatio="xMidYMid meet" version="1.0"><defs><clipPath id="0a064e5f17"><path d="M 45 0 C 20.148438 0 0 20.148438 0 45 C 0 69.851562 20.148438 90 45 90 C 69.851562 90 90 69.851562 90 45 C 90 20.148438 69.851562 0 45 0 Z M 45 0 " clip-rule="nonzero"/></clipPath><clipPath id="0860020a4e"><path d="M 25.410156 56 L 64.410156 56 L 64.410156 68 L 25.410156 68 Z M 25.410156 56 " clip-rule="nonzero"/></clipPath><clipPath id="6bbbbd9f8c"><path d="M 25.410156 18 L 64.410156 18 L 64.410156 59 L 25.410156 59 Z M 25.410156 18 " clip-rule="nonzero"/></clipPath><clipPath id="50489b478d"><path d="M 25.410156 18 L 33 18 L 33 59 L 25.410156 59 Z M 25.410156 18 " clip-rule="nonzero"/></clipPath><clipPath id="b615757f9e"><path d="M 35 61 L 45 61 L 45 71.945312 L 35 71.945312 Z M 35 61 " clip-rule="nonzero"/></clipPath><clipPath id="68452d663c"><path d="M 45.75 26.296875 L 51 26.296875 L 51 33.796875 L 45.75 33.796875 Z M 45.75 26.296875 " clip-rule="nonzero"/></clipPath></defs><g clip-path="url(#0a064e5f17)"><rect x="-9" width="108" fill="#ffffff" y="-9" height="107.999999" fill-opacity="1"/></g><g clip-path="url(#0860020a4e)"><path fill="#000000" d="M 63.574219 65.398438 C 63.6875 65.578125 63.75 65.792969 63.75 66.003906 C 63.75 66.207031 63.695312 66.410156 63.597656 66.585938 C 63.394531 66.957031 63.007812 67.1875 62.585938 67.183594 C 61.425781 67.183594 55.617188 67.183594 45.167969 67.183594 C 45.167969 65.019531 45.167969 63.816406 45.167969 63.578125 C 46.085938 63.421875 46.707031 62.554688 46.554688 61.632812 C 46.421875 60.820312 45.722656 60.222656 44.902344 60.21875 C 43.859375 60.21875 35.511719 60.21875 34.46875 60.21875 C 33.535156 60.222656 32.785156 60.984375 32.792969 61.917969 C 32.800781 62.746094 33.398438 63.445312 34.210938 63.578125 C 34.210938 63.816406 34.210938 65.019531 34.210938 67.183594 C 31.90625 67.183594 30.625 67.183594 30.367188 67.183594 C 27.667969 67.183594 25.476562 64.988281 25.472656 62.28125 C 25.472656 62.207031 25.472656 61.621094 25.472656 61.546875 C 25.472656 61.484375 25.472656 61.421875 25.484375 61.363281 C 25.554688 58.71875 27.722656 56.621094 30.359375 56.636719 C 33.699219 56.636719 60.433594 56.636719 63.777344 56.636719 C 64.085938 56.636719 64.339844 56.890625 64.339844 57.203125 C 64.339844 57.335938 64.292969 57.464844 64.203125 57.566406 C 62.328125 59.765625 62.074219 62.925781 63.574219 65.398438 Z M 63.574219 65.398438 " fill-opacity="1" fill-rule="nonzero"/></g><g clip-path="url(#6bbbbd9f8c)"><path fill="#000000" d="M 30.730469 18.070312 C 27.824219 18.074219 25.472656 20.433594 25.464844 23.347656 C 25.464844 26.816406 25.464844 54.5625 25.464844 58.03125 C 25.785156 57.582031 26.164062 57.175781 26.589844 56.832031 C 26.589844 53.480469 26.589844 26.695312 26.589844 23.347656 C 26.59375 21.058594 28.445312 19.199219 30.730469 19.199219 C 33.972656 19.199219 59.925781 19.199219 63.167969 19.199219 C 63.195312 19.199219 63.214844 19.21875 63.214844 19.242188 C 63.214844 21.660156 63.214844 33.75 63.214844 55.511719 C 63.550781 55.511719 63.738281 55.511719 63.777344 55.511719 C 63.96875 55.507812 64.160156 55.542969 64.339844 55.609375 C 64.339844 51.972656 64.339844 22.882812 64.339844 19.242188 C 64.339844 18.597656 63.816406 18.070312 63.171875 18.070312 C 63.171875 18.070312 63.171875 18.070312 63.167969 18.070312 C 63.167969 18.070312 33.972656 18.070312 30.730469 18.070312 Z M 30.730469 18.070312 " fill-opacity="1" fill-rule="nonzero"/></g><g clip-path="url(#50489b478d)"><path fill="#000000" d="M 32.625 55.511719 C 31.265625 55.511719 30.507812 55.511719 30.359375 55.511719 C 28.414062 55.5 26.589844 56.441406 25.464844 58.03125 C 25.464844 54.5625 25.464844 26.816406 25.464844 23.347656 C 25.472656 20.433594 27.824219 18.074219 30.730469 18.070312 C 30.863281 18.070312 31.925781 18.070312 32.0625 18.070312 C 32.371094 18.070312 32.625 18.324219 32.625 18.636719 C 32.625 18.636719 32.625 30.925781 32.625 55.511719 Z M 32.625 55.511719 " fill-opacity="1" fill-rule="nonzero"/></g><path fill="#000000" d="M 58.859375 34.0625 C 58.859375 35.171875 57.960938 36.070312 56.855469 36.070312 C 55.070312 36.070312 40.769531 36.070312 38.984375 36.070312 C 37.878906 36.070312 36.980469 35.175781 36.980469 34.066406 C 36.980469 34.066406 36.980469 34.0625 36.980469 34.0625 C 36.980469 33.28125 36.980469 27.03125 36.980469 26.25 C 36.980469 25.144531 37.875 24.246094 38.976562 24.242188 C 38.980469 24.242188 38.980469 24.242188 38.984375 24.242188 C 40.769531 24.242188 55.070312 24.242188 56.855469 24.242188 C 57.960938 24.242188 58.859375 25.144531 58.859375 26.25 C 58.859375 27.8125 58.859375 33.28125 58.859375 34.0625 Z M 58.859375 34.0625 " fill-opacity="1" fill-rule="nonzero"/><g clip-path="url(#b615757f9e)"><path fill="#000000" d="M 44.042969 61.90625 C 44.042969 61.597656 43.789062 61.34375 43.480469 61.34375 C 42.722656 61.34375 36.652344 61.34375 35.894531 61.34375 C 35.585938 61.34375 35.332031 61.597656 35.332031 61.90625 C 35.332031 62.8125 35.332031 70.054688 35.332031 70.960938 C 35.332031 71.441406 35.726562 71.832031 36.203125 71.832031 C 36.410156 71.832031 36.605469 71.761719 36.761719 71.628906 C 36.957031 71.46875 37.929688 70.660156 39.683594 69.203125 C 41.441406 70.660156 42.417969 71.46875 42.613281 71.628906 C 42.769531 71.761719 42.96875 71.832031 43.171875 71.832031 C 43.300781 71.832031 43.425781 71.804688 43.542969 71.75 C 43.847656 71.609375 44.042969 71.300781 44.042969 70.960938 C 44.042969 69.152344 44.042969 63.71875 44.042969 61.90625 Z M 44.042969 61.90625 " fill-opacity="1" fill-rule="nonzero"/></g><path fill="#000000" d="M 44.902344 62.472656 C 45.214844 62.472656 45.464844 62.222656 45.464844 61.910156 C 45.464844 61.601562 45.214844 61.347656 44.902344 61.347656 C 43.859375 61.347656 35.511719 61.347656 34.46875 61.347656 C 34.160156 61.347656 33.90625 61.601562 33.90625 61.910156 C 33.90625 62.222656 34.160156 62.472656 34.46875 62.472656 C 36.554688 62.472656 42.816406 62.472656 44.902344 62.472656 Z M 44.902344 62.472656 " fill-opacity="1" fill-rule="nonzero"/><path fill="#000000" d="M 37.542969 42.078125 C 37.230469 42.078125 36.980469 41.824219 36.980469 41.515625 C 36.980469 41.203125 37.230469 40.953125 37.542969 40.953125 C 39.617188 40.953125 56.21875 40.953125 58.292969 40.953125 C 58.605469 40.953125 58.859375 41.203125 58.859375 41.515625 C 58.859375 41.824219 58.605469 42.078125 58.292969 42.078125 C 54.144531 42.078125 39.617188 42.078125 37.542969 42.078125 Z M 37.542969 42.078125 " fill-opacity="1" fill-rule="nonzero"/><path fill="#000000" d="M 37.542969 47.152344 C 37.230469 47.152344 36.980469 46.902344 36.980469 46.589844 C 36.980469 46.28125 37.230469 46.027344 37.542969 46.027344 C 39.617188 46.027344 56.21875 46.027344 58.292969 46.027344 C 58.605469 46.027344 58.859375 46.28125 58.859375 46.589844 C 58.859375 46.902344 58.605469 47.152344 58.292969 47.152344 C 54.144531 47.152344 39.617188 47.152344 37.542969 47.152344 Z M 37.542969 47.152344 " fill-opacity="1" fill-rule="nonzero"/><path fill="#000000" d="M 37.542969 52.226562 C 37.230469 52.226562 36.980469 51.976562 36.980469 51.664062 C 36.980469 51.355469 37.230469 51.101562 37.542969 51.101562 C 39.617188 51.101562 56.21875 51.101562 58.292969 51.101562 C 58.605469 51.101562 58.859375 51.355469 58.859375 51.664062 C 58.859375 51.976562 58.605469 52.226562 58.292969 52.226562 C 54.144531 52.226562 39.617188 52.226562 37.542969 52.226562 Z M 37.542969 52.226562 " fill-opacity="1" fill-rule="nonzero"/><g clip-path="url(#68452d663c)"><path fill="#ffffff" d="M 50.804688 32.214844 L 51 32.214844 C 51 32.765625 50.90625 33.167969 50.71875 33.417969 C 50.539062 33.667969 50.308594 33.796875 50.035156 33.796875 C 49.808594 33.796875 49.589844 33.714844 49.382812 33.550781 C 49.175781 33.382812 48.988281 32.9375 48.824219 32.214844 L 48.363281 30.183594 L 46.765625 33.722656 L 45.75 33.722656 L 48.046875 28.898438 C 47.925781 28.273438 47.777344 27.8125 47.605469 27.511719 C 47.433594 27.210938 47.222656 27.0625 46.96875 27.0625 C 46.765625 27.0625 46.585938 27.140625 46.429688 27.292969 C 46.28125 27.441406 46.195312 27.675781 46.179688 27.992188 L 45.984375 27.992188 C 45.996094 27.480469 46.101562 27.070312 46.300781 26.765625 C 46.503906 26.453125 46.753906 26.296875 47.054688 26.296875 C 47.246094 26.296875 47.429688 26.378906 47.601562 26.535156 C 47.777344 26.6875 47.925781 26.953125 48.050781 27.328125 C 48.179688 27.703125 48.378906 28.476562 48.648438 29.65625 L 49.03125 31.316406 C 49.183594 32.003906 49.34375 32.464844 49.511719 32.695312 C 49.683594 32.925781 49.886719 33.042969 50.125 33.042969 C 50.523438 33.042969 50.753906 32.765625 50.804688 32.214844 Z M 50.804688 32.214844 " fill-opacity="1" fill-rule="nonzero"/></g></svg>