<svg xmlns="http://www.w3.org/2000/svg" xmlns:xlink="http://www.w3.org/1999/xlink" width="120" zoomAndPan="magnify" viewBox="0 0 90 89.999999" height="120" preserveAspectRatio="xMidYMid meet" version="1.0"><defs><clipPath id="974130814d"><path d="M 45 0 C 20.148438 0 0 20.148438 0 45 C 0 69.851562 20.148438 90 45 90 C 69.851562 90 90 69.851562 90 45 C 90 20.148438 69.851562 0 45 0 Z M 45 0 " clip-rule="nonzero"/></clipPath><clipPath id="ca66c6c589"><path d="M 27.390625 19.199219 L 62.640625 19.199219 L 62.640625 70.949219 L 27.390625 70.949219 Z M 27.390625 19.199219 " clip-rule="nonzero"/></clipPath></defs><g clip-path="url(#974130814d)"><rect x="-9" width="108" fill="#ffffff" y="-9" height="107.999999" fill-opacity="1"/></g><g clip-path="url(#ca66c6c589)"><path fill="#000000" d="M 61.308594 59.921875 L 62.601562 59.921875 C 62.601562 63.714844 61.980469 66.476562 60.730469 68.203125 C 59.507812 69.933594 57.96875 70.796875 56.121094 70.796875 C 54.609375 70.796875 53.15625 70.234375 51.765625 69.105469 C 50.375 67.953125 49.125 64.890625 48.019531 59.921875 L 44.925781 45.953125 L 34.195312 70.292969 L 27.390625 70.292969 L 42.800781 37.09375 C 41.984375 32.796875 41 29.617188 39.847656 27.554688 C 38.695312 25.488281 37.265625 24.457031 35.5625 24.457031 C 34.195312 24.457031 32.996094 24.984375 31.960938 26.042969 C 30.953125 27.074219 30.390625 28.683594 30.269531 30.867188 L 28.972656 30.867188 C 29.046875 27.335938 29.753906 24.515625 31.097656 22.40625 C 32.441406 20.269531 34.121094 19.199219 36.140625 19.199219 C 37.433594 19.199219 38.660156 19.742188 39.8125 20.820312 C 40.988281 21.875 41.996094 23.699219 42.835938 26.292969 C 43.699219 28.863281 45.03125 34.203125 46.832031 42.316406 L 49.390625 53.730469 C 50.421875 58.460938 51.5 61.628906 52.628906 63.234375 C 53.78125 64.820312 55.148438 65.613281 56.734375 65.613281 C 59.421875 65.613281 60.945312 63.714844 61.308594 59.921875 Z M 61.308594 59.921875 " fill-opacity="1" fill-rule="nonzero"/></g></svg>